<svg width="152" height="92" viewBox="0 0 152 92" fill="none" xmlns="http://www.w3.org/2000/svg">
<g clip-path="url(#clip0_2865_4213)">
<path d="M42.7329 33.3702C42.5613 38.7686 45.2591 41.1592 45.3258 42.6774C45.2941 42.9864 45.1888 43.2833 45.0188 43.5433C44.8488 43.8033 44.619 44.0188 44.3487 44.1718L41.2983 46.3074C40.9035 46.5841 40.4381 46.7428 39.9565 46.765C39.8541 46.7602 38.0047 47.2011 35.0758 40.661C33.2888 42.8918 31.0152 44.6841 28.429 45.9007C25.8427 47.1174 23.0124 47.7261 20.1547 47.6802C16.2749 47.8923 5.76032 45.4779 6.3013 34.283C5.92238 25.1593 14.4184 19.4915 23.2052 19.9706C24.8972 19.9753 28.3528 20.0588 34.4037 21.465V17.7421C35.0448 11.4355 30.9005 6.54238 23.7247 7.27647C23.1527 7.27886 19.1013 7.1573 12.8002 9.68611C11.0462 10.4917 10.8222 10.3582 10.2383 10.3582C8.47238 10.3582 9.19924 5.23865 9.53766 4.59036C10.7793 3.06497 18.0837 0.216785 25.2523 0.257303C30.0455 -0.166643 34.813 1.3128 38.5242 4.37585C40.0329 6.06351 41.1838 8.03946 41.9076 10.1844C42.6314 12.3293 42.9129 14.5987 42.7353 16.8554L42.7329 33.3702ZM22.1375 41.09C29.8662 40.978 33.1383 36.3304 33.8842 33.8278C34.4705 31.4324 34.3727 29.9166 34.3727 27.2972C32.0682 26.7442 28.7508 26.1412 24.9449 26.1365C21.3344 25.8648 14.7401 27.4783 14.9975 33.8254C14.702 37.8271 17.6476 41.3093 22.1375 41.09ZM62.8708 46.5838C60.9976 46.7554 60.1254 45.4255 59.8489 44.1122L47.9807 4.86922C47.7495 4.20663 47.597 3.52259 47.5231 2.82424C47.4793 2.53634 47.5516 2.24282 47.7241 2.00819C47.8966 1.77356 48.1552 1.61702 48.443 1.57295C48.5002 1.56342 47.9354 1.57295 53.7456 1.57295C55.838 1.36321 56.5196 3.01015 56.7365 4.04456L65.2492 37.6103L73.1518 4.04456C73.2781 3.2771 73.8525 1.40611 76.2023 1.60394H80.2918C80.809 1.56103 82.9395 1.48476 83.3137 4.07554L91.2783 38.0703L100.065 4.07554C100.179 3.55596 100.713 1.36559 103.087 1.60394H107.787C107.989 1.57295 109.252 1.41088 109.038 3.64891C108.935 4.08984 109.85 1.10818 96.4664 44.1432C96.1924 45.4565 95.3177 46.7864 93.4446 46.6148H88.9904C86.3832 46.8889 86.009 44.3124 85.9685 44.0526L78.0659 11.3688L70.2539 44.0193C70.2157 44.2791 69.8416 46.8555 67.232 46.5814H62.8708V46.5838ZM128.046 47.9257C126.645 47.9281 119.962 47.8542 114.376 44.9965C113.82 44.7608 113.346 44.3653 113.014 43.8599C112.683 43.3545 112.509 42.7621 112.515 42.1578V39.5956C112.515 37.5817 113.992 37.9511 114.619 38.1918C117.012 39.1595 118.547 39.8936 121.485 40.4799C130.219 42.2746 134.061 39.9317 135.002 39.4121C138.136 37.5507 138.384 33.2915 136.254 31.0821C133.756 28.987 132.564 28.9084 123.592 26.0769C122.486 25.7694 113.177 22.8331 113.156 13.5973C113.01 6.86653 119.126 0.20725 129.724 0.262069C132.743 0.259685 140.789 1.24642 142.967 3.98497C143.289 4.48311 143.448 5.06943 143.425 5.6629V8.07254C143.425 9.13077 143.038 9.65989 142.264 9.65989C140.427 9.45492 137.166 6.99761 130.548 7.09772C128.906 7.01191 121.042 7.31461 121.394 13.0491C121.292 17.5681 127.736 19.2627 128.473 19.4581C137.162 22.0727 140.067 22.5065 143.515 26.5083C147.6 31.8114 145.398 38.0202 144.552 39.722C140.005 48.6574 128.246 47.9305 128.046 47.9257ZM137.626 72.9182C120.937 85.2453 96.7095 91.8068 76.0235 91.8068C48.1119 91.9909 21.1409 81.7267 0.41247 63.0318C-1.14374 61.628 0.228965 59.7046 2.12121 60.7747C25.1152 73.9292 51.1492 80.841 77.6393 80.824C97.4215 80.7179 116.988 76.7045 135.215 69.0142C138.022 67.8225 140.403 70.8733 137.626 72.9182ZM144.583 64.9838C142.447 62.2381 130.455 63.7016 125.086 64.3427C123.468 64.5262 123.194 63.1224 124.659 62.0856C134.209 55.3715 149.893 57.2949 151.694 59.552C153.493 61.8091 151.206 77.5254 142.266 85.0332C140.894 86.1939 139.58 85.5814 140.191 84.056C142.202 78.9912 146.718 67.7319 144.583 64.9838Z" fill="#737373"/>
</g>
<defs>
<clipPath id="clip0_2865_4213">
<rect width="153" height="92" fill="white" transform="translate(-0.5)"/>
</clipPath>
</defs>
</svg>
