<svg width="150" height="50" viewBox="0 0 150 50" fill="none" xmlns="http://www.w3.org/2000/svg">
<g clip-path="url(#clip0_2865_4201)">
<path d="M34.142 46.9481L43.0587 47.1359C39.9856 46.0561 37.0056 44.7416 34.142 43.1923V46.9481ZM47.5752 45.704V46.9481L43.0587 47.1359C51.5563 50.0702 59.3323 50.4693 65.106 48.8261C60.473 48.873 54.4432 48.2157 47.5752 45.704ZM142.772 18.6618C146.474 18.6618 149.501 15.6336 149.501 11.8777C149.501 8.12185 146.497 6.12654 142.772 6.12654C139.071 6.12654 136.044 8.14532 136.044 11.8777C136.044 15.6101 139.047 18.6618 142.772 18.6618ZM136.021 46.9481H149.501V21.0092H136.021V46.9481ZM118.862 46.9481H132.342V1.10306L118.862 7.51151V46.9481ZM111.645 18.92C107.408 14.6477 99.9115 14.9059 99.9115 14.9059C99.9115 14.9059 92.3916 14.6477 88.1777 18.92C83.9405 23.1923 84.2665 26.8777 84.2665 31.2674C84.2665 35.6571 83.9405 39.319 88.1777 43.5913C92.4149 47.8636 99.9115 47.6054 99.9115 47.6054C99.9115 47.6054 107.431 47.8636 111.645 43.5913C115.882 39.319 115.556 35.6571 115.556 31.2674C115.533 26.8542 115.859 23.1688 111.645 18.92ZM102.379 35.7979C102.379 36.643 101.96 38.7322 99.8882 38.7322C97.8162 38.7322 97.3971 36.643 97.3971 35.7979V26.3143C97.3971 24.2721 99.0966 23.7556 99.8882 23.7556C100.68 23.7556 102.379 24.2486 102.379 26.3143V35.7979ZM77.6546 18.92C73.4174 14.6477 65.9209 14.9059 65.9209 14.9059C65.9209 14.9059 58.4243 14.6477 54.1871 18.92C53.7448 19.366 53.3257 19.8355 52.9532 20.3284C44.0598 13.3801 36.0743 9.41292 29.1831 5.98569V1.12654L23.9448 3.6148C11.2798 -1.573 3.22446 -0.657501 1.29212 3.63827C1.29212 3.63827 -4.50491 11.3378 15.6799 29.6477V46.9481H29.1598V40.2345C27.6465 39.2486 26.1332 38.1923 24.6432 37.042C21.1976 34.4129 18.2641 31.9716 15.7032 29.6711V22.3941C18.7531 25.8449 22.804 29.765 28.1354 34.2017L29.1831 35.0467V28.0514C29.1831 26.4317 29.5788 23.7791 31.6974 23.7791C33.816 23.7791 34.1652 25.3988 34.1652 27.3002V38.7322C38.3559 41.596 42.8491 43.92 47.5985 45.6805V23.6383C47.5985 19.2486 44.4788 14.8589 38.1463 14.8589C34.4679 14.8355 31.0456 16.7838 29.1831 19.9998V7.2533C38.9379 12.1594 48.716 18.1688 52.441 20.9387C50.0663 24.366 50.2759 27.535 50.2759 31.197C50.2759 35.5866 49.9499 39.2486 54.1871 43.5209C58.4243 47.7932 65.9209 47.535 65.9209 47.535C65.9209 47.535 73.4407 47.7932 77.6546 43.5209C81.8918 39.2486 81.5426 35.5866 81.5426 31.197C81.5426 26.8542 81.8918 23.1688 77.6546 18.92ZM15.6799 7.51151V22.3707C4.34196 9.57724 6.62353 4.53029 7.48493 3.80259C10.6279 1.12654 16.2154 1.92466 22.4781 4.29555L15.6799 7.51151ZM68.412 35.7979C68.412 36.643 67.9929 38.7322 65.9209 38.7322C63.8488 38.7322 63.4298 36.643 63.4298 35.7979V26.3143C63.4298 24.2721 65.1293 23.7556 65.9209 23.7556C66.7124 23.7556 68.412 24.2486 68.412 26.3143V35.7979Z" fill="#737373"/>
</g>
<defs>
<clipPath id="clip0_2865_4201">
<rect width="149" height="50" fill="white" transform="translate(0.5)"/>
</clipPath>
</defs>
</svg>
