<svg width="140" height="99" viewBox="0 0 140 99" fill="none" xmlns="http://www.w3.org/2000/svg">
<g clip-path="url(#clip0_2865_4204)">
<path d="M0.5 1.67018H21.6215V58.7456C21.6215 67.7978 25.6938 73.1854 29.0059 75.4279C25.558 78.4635 15.1059 81.1437 7.23281 74.6622C2.61758 70.8334 0.5 64.4613 0.5 58.5268V1.67018ZM132.414 49.1191V43.1025H138.876V22.0992H131.79C129.048 9.43703 117.89 0.0292969 104.56 0.0292969C89.1939 0.0292969 76.6785 12.6094 76.6785 28.1158V77.1235C81.0223 77.7525 86.2891 77.0415 90.7143 73.2948C95.3566 69.466 97.4471 63.1213 97.4471 57.1594V55.3271H107.981V34.3238H97.4471V27.9517C97.4471 18.4892 111.619 18.4892 111.619 27.9517V49.037C111.619 64.516 124.107 77.1235 139.5 77.1235V56.2022C135.563 56.2022 132.414 53.0025 132.414 49.1191ZM52.5164 22.0445V52.9478C52.5164 57.1594 46.0551 57.1594 46.0551 52.9478V22.0445H25.2051V58.3354C25.2051 64.8442 27.377 73.1033 37.4219 75.8108C47.4668 78.4909 53.2223 72.9119 53.2223 72.9119C52.6521 76.5765 49.2857 79.284 43.7475 79.8309C39.5395 80.2685 34.1912 78.8464 31.5307 77.6978V96.9235C38.3449 98.9746 45.5121 99.6036 52.5979 98.2089C65.3848 95.7202 73.4479 84.9724 73.4479 70.642V21.9078H52.5164V22.0445Z" fill="#737373"/>
</g>
<defs>
<clipPath id="clip0_2865_4204">
<rect width="139" height="99" fill="white" transform="translate(0.5)"/>
</clipPath>
</defs>
</svg>
